<?xml version="1.0" standalone="no"?>
<!DOCTYPE svg PUBLIC "-//W3C//DTD SVG 20010904//EN"
 "http://www.w3.org/TR/2001/REC-SVG-20010904/DTD/svg10.dtd">
<svg version="1.0" xmlns="http://www.w3.org/2000/svg"
 width="512.000000pt" height="512.000000pt" viewBox="0 0 512.000000 512.000000"
 preserveAspectRatio="xMidYMid meet">

<g transform="translate(0.000000,512.000000) scale(0.100000,-0.100000)"
fill="#000000" stroke="none">
<path d="M0 3585 l0 -865 621 0 622 0 -7 -127 c-25 -481 -130 -749 -332 -847
-68 -34 -142 -52 -276 -67 l-108 -13 0 -499 0 -499 98 7 c396 26 625 73 830
170 452 214 684 626 767 1365 29 258 35 510 35 1373 l0 867 -1125 0 -1125 0 0
-865z"/>
<path d="M2870 3585 l0 -865 612 -2 611 -3 -2 -80 c-3 -121 -19 -278 -41 -396
-38 -204 -101 -341 -194 -426 -88 -81 -168 -111 -358 -133 l-108 -13 0 -498
c0 -474 1 -499 18 -499 50 0 300 22 400 36 793 106 1170 551 1276 1509 30 268
36 489 36 1360 l0 875 -1125 0 -1125 0 0 -865z"/>
</g>
</svg>
